<svg id="Layer_1" xmlns="http://www.w3.org/2000/svg" width="127" height="35" viewBox="0 0 127 35"><style>.st0{fill:#00d691}.st1{filter:url(#Adobe_OpacityMaskFilter)}.st2{fill:#fff}.st3{mask:url(#mask-2_1_);fill:#00d691}</style><title>xxxhdpi/Group 2</title><g id="Buyers" transform="translate(-23 -22)"><g id="Group-2" transform="translate(23 22)"><path id="Fill-1" class="st0" d="M47 29h3.9v-9.3h8.3v-3.6h-8.3v-5.5H60V7H47z"/><path id="Fill-2" class="st0" d="M74.9 13l-5 11.6L65.1 13H61l6.8 16.1-2.6 5.9h4L79 13z"/><g id="Group-12"><path id="Fill-3" class="st0" d="M91.7 24.3c-.9.9-1.9 1.3-3.3 1.3-1.3 0-2.5-.5-3.4-1.3-.9-.9-1.4-2-1.4-3.3 0-1.3.5-2.5 1.4-3.3.9-.9 2.1-1.3 3.4-1.3 1.3 0 2.4.5 3.3 1.3.9.9 1.3 2 1.3 3.3 0 1.3-.4 2.4-1.3 3.3M88.9 13c-2.6 0-4.4 1.1-4.9 2.6V7.4h-3.7v21.2H84v-2.2c.5 1.5 2.4 2.6 4.9 2.6 2.2 0 4-.8 5.5-2.3 1.5-1.6 2.2-3.4 2.2-5.7 0-2.3-.7-4.2-2.2-5.7-1.4-1.6-3.3-2.3-5.5-2.3"/><path id="Fill-5" class="st0" d="M102.3 19.3c.1-.9.6-1.7 1.4-2.4.8-.6 1.8-1 3-1 1.1 0 2 .3 2.7 1 .8.6 1.2 1.4 1.2 2.3h-8.3zm4.4-6.4c-2.4 0-4.3.7-5.8 2.2-1.5 1.5-2.3 3.4-2.3 5.9v.1c0 2.4.8 4.3 2.3 5.7 1.5 1.4 3.5 2.2 5.9 2.2 2.6 0 4.8-.9 6.5-2.7l-2.2-2.1c-1.2 1.2-2.6 1.8-4.2 1.8-2.7 0-4.5-1.6-4.7-4h12c0-.4.1-.8.1-1.3 0-2.2-.7-4-2.2-5.5-1.3-1.6-3.2-2.3-5.4-2.3z"/><g id="Group-9" transform="translate(116.661 12.824)"><defs><filter id="Adobe_OpacityMaskFilter" filterUnits="userSpaceOnUse" x=".1" y=".2" width="9.4" height="15.6"><feColorMatrix values="1 0 0 0 0 0 1 0 0 0 0 0 1 0 0 0 0 0 1 0"/></filter></defs><mask maskUnits="userSpaceOnUse" x=".1" y=".2" width="9.4" height="15.6" id="mask-2_1_"><g class="st1"><path id="path-1_1_" class="st2" d="M.1.2h9.4v15.6H.1z"/></g></mask><path id="Fill-7" class="st3" d="M8.4.2c-2.2 0-3.9 1-4.6 2.6V.5H.1v15.3h3.7V7.7c0-2.5 1.6-4.1 4.2-4.1.6 0 1.1.1 1.5.2V.3C9.2.2 8.8.2 8.4.2"/></g></g></g></g><path class="st0" d="M0 .1v34.4h7.8c0-10.5 4.8-15.6 14-15.6h7.5V26h-6.5c-4.7 0-8 1.4-7.8 8.5h22.8V.1H0zm29.3 15.6H8.6V8.6h20.7v7.1z"/></svg>